{
  "accessors": [
    {
      "bufferView": 2,
      "componentType": 5126,
      "count": 68,
      "max": [
        -0.02143700048327446,
        0.5063049793243408,
        0.7169740200042725
      ],
      "min": [
        -0.23872199654579163,
        -0.2963300049304962,
        -0.0856609046459198
      ],
      "type": "VEC3"
    },
    {
      "bufferView": 2,
      "byteOffset": 816,
      "componentType": 5126,
      "count": 68,
      "max": [
        1.0,
        0.7462007999420166,
        0.7462007999420166
      ],
      "min": [
        -1.0,
        -0.7462007999420166,
        -0.7462007999420166
      ],
      "type": "VEC3"
    },
    {
      "bufferView": 3,
      "componentType": 5126,
      "count": 68,
      "max": [
        0.7149768471717834,
        0.6657209396362305,
        0.6657209992408752,
        1.0
      ],
      "min": [
        -0.7462054491043091,
        -0.9913462400436401,
        -0.9913462400436401,
        1.0
      ],
      "type": "VEC4"
    },
    {
      "bufferView": 1,
      "componentType": 5126,
      "count": 68,
      "max": [
        0.9609940052032471,
        0.865805983543396
      ],
      "min": [
        0.4278540015220642,
        0.010108300484716892
      ],
      "type": "VEC2"
    },
    {
      "bufferView": 0,
      "componentType": 5125,
      "count": 192,
      "type": "SCALAR"
    },
    {
      "bufferView": 2,
      "byteOffset": 1632,
      "componentType": 5126,
      "count": 150,
      "max": [
        0.19280600547790527,
        0.17320500314235687,
        1.0
      ],
      "min": [
        -0.45296600461006165,
        -0.061179399490356445,
        -0.9710379838943481
      ],
      "type": "VEC3"
    },
    {
      "bufferView": 2,
      "byteOffset": 3432,
      "componentType": 5126,
      "count": 150,
      "max": [
        1.0,
        0.73428875207901,
        0.9054144620895386
      ],
      "min": [
        -1.0,
        -0.7071067690849304,
        -0.9054144620895386
      ],
      "type": "VEC3"
    },
    {
      "bufferView": 3,
      "byteOffset": 1088,
      "componentType": 5126,
      "count": 150,
      "max": [
        0.862828254699707,
        1.0,
        0.9993676543235779,
        1.0
      ],
      "min": [
        -0.9537100195884705,
        -1.0,
        -0.9196827411651611,
        1.0
      ],
      "type": "VEC4"
    },
    {
      "bufferView": 1,
      "byteOffset": 544,
      "componentType": 5126,
      "count": 150,
      "max": [
        0.8721609711647034,
        0.9800209999084473
      ],
      "min": [
        0.0337974987924099,
        0.005380420014262199
      ],
      "type": "VEC2"
    },
    {
      "bufferView": 0,
      "byteOffset": 768,
      "componentType": 5125,
      "count": 480,
      "type": "SCALAR"
    },
    {
      "bufferView": 2,
      "byteOffset": 5232,
      "componentType": 5126,
      "count": 14,
      "max": [
        0.25894200801849365,
        0.13592000305652618,
        -0.4843190014362335
      ],
      "min": [
        -0.5191010236740112,
        0.07846009731292725,
        -1.0
      ],
      "type": "VEC3"
    },
    {
      "bufferView": 2,
      "byteOffset": 5400,
      "componentType": 5126,
      "count": 14,
      "max": [
        0.5773502588272095,
        0.5773502588272095,
        0.5773502588272095
      ],
      "min": [
        -0.5773502588272095,
        -0.5773502588272095,
        -0.5773502588272095
      ],
      "type": "VEC3"
    },
    {
      "bufferView": 3,
      "byteOffset": 3488,
      "componentType": 5126,
      "count": 14,
      "max": [
        0.8164966702461243,
        0.8164966702461243,
        0.40824833512306213,
        1.0
      ],
      "min": [
        -0.40824833512306213,
        -0.8164966702461243,
        -0.4082483649253845,
        1.0
      ],
      "type": "VEC4"
    },
    {
      "bufferView": 1,
      "byteOffset": 1744,
      "componentType": 5126,
      "count": 14,
      "max": [
        0.7075920104980469,
        0.3644750118255615
      ],
      "min": [
        0.4278540015220642,
        0.005380420014262199
      ],
      "type": "VEC2"
    },
    {
      "bufferView": 0,
      "byteOffset": 2688,
      "componentType": 5125,
      "count": 36,
      "type": "SCALAR"
    },
    {
      "bufferView": 2,
      "byteOffset": 5568,
      "componentType": 5126,
      "count": 10,
      "max": [
        0.07125470042228699,
        0.06696239858865738,
        -0.212227001786232
      ],
      "min": [
        -0.33141398429870605,
        -0.047171398997306824,
        -0.34348398447036743
      ],
      "type": "VEC3"
    },
    {
      "bufferView": 2,
      "byteOffset": 5688,
      "componentType": 5126,
      "count": 10,
      "max": [
        0.0,
        0.7071067690849304,
        0.7071067690849304
      ],
      "min": [
        0.0,
        -0.7071067690849304,
        -0.7071067690849304
      ],
      "type": "VEC3"
    },
    {
      "bufferView": 3,
      "byteOffset": 3712,
      "componentType": 5126,
      "count": 10,
      "max": [
        -1.0,
        0.0,
        0.0,
        1.0
      ],
      "min": [
        -1.0,
        0.0,
        0.0,
        1.0
      ],
      "type": "VEC4"
    },
    {
      "bufferView": 1,
      "byteOffset": 1856,
      "componentType": 5126,
      "count": 10,
      "max": [
        0.9433429837226868,
        0.9568920135498047
      ],
      "min": [
        0.8039900064468384,
        0.7870450019836426
      ],
      "type": "VEC2"
    },
    {
      "bufferView": 0,
      "byteOffset": 2832,
      "componentType": 5125,
      "count": 24,
      "type": "SCALAR"
    },
    {
      "bufferView": 2,
      "byteOffset": 5808,
      "componentType": 5126,
      "count": 252,
      "max": [
        0.5191010236740112,
        0.2933099865913391,
        0.4854480028152466
      ],
      "min": [
        -0.5081729888916016,
        -0.10123500227928162,
        0.12694300711154938
      ],
      "type": "VEC3"
    },
    {
      "bufferView": 2,
      "byteOffset": 8832,
      "componentType": 5126,
      "count": 252,
      "max": [
        0.9101527333259583,
        0.9724704027175903,
        0.9993209838867188
      ],
      "min": [
        -1.0,
        -0.9749849438667297,
        -0.9992169141769409
      ],
      "type": "VEC3"
    },
    {
      "bufferView": 3,
      "byteOffset": 3872,
      "componentType": 5126,
      "count": 252,
      "max": [
        0.9961358904838562,
        0.9986115097999573,
        0.9978421926498413,
        1.0
      ],
      "min": [
        -0.9975549578666687,
        -0.998611330986023,
        -0.9974803328514099,
        1.0
      ],
      "type": "VEC4"
    },
    {
      "bufferView": 1,
      "byteOffset": 1936,
      "componentType": 5126,
      "count": 252,
      "max": [
        0.8644610047340393,
        0.9486759901046753
      ],
      "min": [
        0.09227020293474197,
        0.03067140094935894
      ],
      "type": "VEC2"
    },
    {
      "bufferView": 0,
      "byteOffset": 2928,
      "componentType": 5125,
      "count": 828,
      "type": "SCALAR"
    },
    {
      "bufferView": 2,
      "byteOffset": 11856,
      "componentType": 5126,
      "count": 10,
      "max": [
        0.07125470042228699,
        0.05281740054488182,
        0.921887993812561
      ],
      "min": [
        -0.33141398429870605,
        -0.033026400953531265,
        0.8231649994850159
      ],
      "type": "VEC3"
    },
    {
      "bufferView": 2,
      "byteOffset": 11976,
      "componentType": 5126,
      "count": 10,
      "max": [
        0.0,
        0.7071067690849304,
        0.7071067690849304
      ],
      "min": [
        0.0,
        -0.7071067690849304,
        -0.7071067690849304
      ],
      "type": "VEC3"
    },
    {
      "bufferView": 3,
      "byteOffset": 7904,
      "componentType": 5126,
      "count": 10,
      "max": [
        -1.0,
        0.0,
        0.0,
        1.0
      ],
      "min": [
        -1.0,
        0.0,
        0.0,
        1.0
      ],
      "type": "VEC4"
    },
    {
      "bufferView": 1,
      "byteOffset": 3952,
      "componentType": 5126,
      "count": 10,
      "max": [
        0.17315100133419037,
        0.9687539935112
      ],
      "min": [
        0.0337974987924099,
        0.8410069942474365
      ],
      "type": "VEC2"
    },
    {
      "bufferView": 0,
      "byteOffset": 6240,
      "componentType": 5125,
      "count": 24,
      "type": "SCALAR"
    },
    {
      "bufferView": 2,
      "byteOffset": 12096,
      "componentType": 5126,
      "count": 30,
      "max": [
        0.05563490092754364,
        -0.24811099469661713,
        0.7295640110969543
      ],
      "min": [
        -0.3157939910888672,
        -0.35445401072502136,
        -0.58890300989151
      ],
      "type": "VEC3"
    },
    {
      "bufferView": 2,
      "byteOffset": 12456,
      "componentType": 5126,
      "count": 30,
      "max": [
        0.00027467432664707303,
        0.7188190817832947,
        0.7186090350151062
      ],
      "min": [
        -0.00027467432664707303,
        -0.7071983218193054,
        -0.7186090350151062
      ],
      "type": "VEC3"
    },
    {
      "bufferView": 3,
      "byteOffset": 8064,
      "componentType": 5126,
      "count": 30,
      "max": [
        1.0,
        0.0006218337221071124,
        0.00042966502951458097,
        1.0
      ],
      "min": [
        0.9999998211860657,
        -0.0005095993401482701,
        -0.00042966738692484796,
        1.0
      ],
      "type": "VEC4"
    },
    {
      "bufferView": 1,
      "byteOffset": 4032,
      "componentType": 5126,
      "count": 30,
      "max": [
        0.5563979744911194,
        0.9954439997673035
      ],
      "min": [
        0.1816210001707077,
        0.8410069942474365
      ],
      "type": "VEC2"
    },
    {
      "bufferView": 0,
      "byteOffset": 6336,
      "componentType": 5125,
      "count": 96,
      "type": "SCALAR"
    },
    {
      "bufferView": 2,
      "byteOffset": 12816,
      "componentType": 5126,
      "count": 88,
      "max": [
        0.20248499512672424,
        -0.05370030179619789,
        0.7759150266647339
      ],
      "min": [
        -0.4626449942588806,
        -0.5063049793243408,
        -0.635254979133606
      ],
      "type": "VEC3"
    },
    {
      "bufferView": 2,
      "byteOffset": 13872,
      "componentType": 5126,
      "count": 88,
      "max": [
        0.7047711610794067,
        0.11600259691476822,
        0.7047711610794067
      ],
      "min": [
        -0.7047711610794067,
        -0.5505349040031433,
        -0.7047711610794067
      ],
      "type": "VEC3"
    },
    {
      "bufferView": 3,
      "byteOffset": 8544,
      "componentType": 5126,
      "count": 88,
      "max": [
        0.8066897392272949,
        0.9966956973075867,
        0.513217568397522,
        1.0
      ],
      "min": [
        -0.5523648858070374,
        -0.9966607093811035,
        -0.5576146245002747,
        1.0
      ],
      "type": "VEC4"
    },
    {
      "bufferView": 1,
      "byteOffset": 4272,
      "componentType": 5126,
      "count": 88,
      "max": [
        0.886335015296936,
        0.8325369954109192
      ],
      "min": [
        0.035533301532268524,
        0.0058763897977769375
      ],
      "type": "VEC2"
    },
    {
      "bufferView": 0,
      "byteOffset": 6720,
      "componentType": 5125,
      "count": 312,
      "type": "SCALAR"
    }
  ],
  "asset": {
    "extras": {
      "author": "Aartee (https://sketchfab.com/Aartee)",
      "license": "CC-BY-4.0 (http://creativecommons.org/licenses/by/4.0/)",
      "source": "https://sketchfab.com/3d-models/grindstone-reworked-af0e888df7624bb8b285d954e20e8233",
      "title": "Grindstone Reworked"
    },
    "generator": "Sketchfab-12.68.0",
    "version": "2.0"
  },
  "bufferViews": [
    {
      "buffer": 0,
      "byteLength": 7968,
      "name": "floatBufferViews",
      "target": 34963
    },
    {
      "buffer": 0,
      "byteLength": 4976,
      "byteOffset": 7968,
      "byteStride": 8,
      "name": "floatBufferViews",
      "target": 34962
    },
    {
      "buffer": 0,
      "byteLength": 14928,
      "byteOffset": 12944,
      "byteStride": 12,
      "name": "floatBufferViews",
      "target": 34962
    },
    {
      "buffer": 0,
      "byteLength": 9952,
      "byteOffset": 27872,
      "byteStride": 16,
      "name": "floatBufferViews",
      "target": 34962
    }
  ],
  "buffers": [
    {
      "byteLength": 37824,
      "uri": "scene.bin"
    }
  ],
  "images": [
    {
      "uri": "textures/Main_baseColor.jpeg"
    },
    {
      "uri": "textures/Main_metallicRoughness.png"
    },
    {
      "uri": "textures/Main_normal.png"
    }
  ],
  "materials": [
    {
      "doubleSided": true,
      "name": "Main",
      "normalTexture": {
        "index": 2
      },
      "occlusionTexture": {
        "index": 1
      },
      "pbrMetallicRoughness": {
        "baseColorTexture": {
          "index": 0
        },
        "metallicRoughnessTexture": {
          "index": 1
        }
      }
    }
  ],
  "meshes": [
    {
      "name": "Cylinder_low_Main_0",
      "primitives": [
        {
          "attributes": {
            "NORMAL": 1,
            "POSITION": 0,
            "TANGENT": 2,
            "TEXCOORD_0": 3
          },
          "indices": 4,
          "material": 0,
          "mode": 4
        }
      ]
    },
    {
      "name": "Cube_low_Main_0",
      "primitives": [
        {
          "attributes": {
            "NORMAL": 6,
            "POSITION": 5,
            "TANGENT": 7,
            "TEXCOORD_0": 8
          },
          "indices": 9,
          "material": 0,
          "mode": 4
        }
      ]
    },
    {
      "name": "Cube.001_low_Main_0",
      "primitives": [
        {
          "attributes": {
            "NORMAL": 11,
            "POSITION": 10,
            "TANGENT": 12,
            "TEXCOORD_0": 13
          },
          "indices": 14,
          "material": 0,
          "mode": 4
        }
      ]
    },
    {
      "name": "Cube.004_low_Main_0",
      "primitives": [
        {
          "attributes": {
            "NORMAL": 16,
            "POSITION": 15,
            "TANGENT": 17,
            "TEXCOORD_0": 18
          },
          "indices": 19,
          "material": 0,
          "mode": 4
        }
      ]
    },
    {
      "name": "Cylinder.001_low_Main_0",
      "primitives": [
        {
          "attributes": {
            "NORMAL": 21,
            "POSITION": 20,
            "TANGENT": 22,
            "TEXCOORD_0": 23
          },
          "indices": 24,
          "material": 0,
          "mode": 4
        }
      ]
    },
    {
      "name": "Cube.005_low_Main_0",
      "primitives": [
        {
          "attributes": {
            "NORMAL": 26,
            "POSITION": 25,
            "TANGENT": 27,
            "TEXCOORD_0": 28
          },
          "indices": 29,
          "material": 0,
          "mode": 4
        }
      ]
    },
    {
      "name": "Cube.006_low_Main_0",
      "primitives": [
        {
          "attributes": {
            "NORMAL": 31,
            "POSITION": 30,
            "TANGENT": 32,
            "TEXCOORD_0": 33
          },
          "indices": 34,
          "material": 0,
          "mode": 4
        }
      ]
    },
    {
      "name": "Cube.002_low_Main_0",
      "primitives": [
        {
          "attributes": {
            "NORMAL": 36,
            "POSITION": 35,
            "TANGENT": 37,
            "TEXCOORD_0": 38
          },
          "indices": 39,
          "material": 0,
          "mode": 4
        }
      ]
    }
  ],
  "nodes": [
    {
      "children": [
        1
      ],
      "matrix": [
        1.6191315650939941,
        0.0,
        0.0,
        0.0,
        0.0,
        3.5951942869294354e-16,
        -1.6191315650939941,
        0.0,
        0.0,
        1.6191315650939941,
        3.5951942869294354e-16,
        0.0,
        0.0,
        0.0,
        0.0,
        1.0
      ],
      "name": "Sketchfab_model"
    },
    {
      "children": [
        2
      ],
      "matrix": [
        1.0,
        0.0,
        0.0,
        0.0,
        0.0,
        0.0,
        1.0,
        0.0,
        0.0,
        -1.0,
        0.0,
        0.0,
        0.0,
        0.0,
        0.0,
        1.0
      ],
      "name": "73d7cf7ab6be47588f7c1494b19ffc59.fbx"
    },
    {
      "children": [
        3,
        5,
        7,
        9,
        11,
        13,
        15,
        17
      ],
      "name": "RootNode"
    },
    {
      "children": [
        4
      ],
      "matrix": [
        100.0,
        0.0,
        0.0,
        0.0,
        0.0,
        99.99999999999866,
        1.6292067073209114e-05,
        0.0,
        0.0,
        -1.6292067073209114e-05,
        99.99999999999866,
        0.0,
        0.0,
        0.0,
        0.0,
        1.0
      ],
      "name": "Cylinder_low"
    },
    {
      "mesh": 0,
      "name": "Cylinder_low_Main_0"
    },
    {
      "children": [
        6
      ],
      "matrix": [
        100.0,
        0.0,
        0.0,
        0.0,
        0.0,
        99.99999999999866,
        1.6292067073209114e-05,
        0.0,
        0.0,
        -1.6292067073209114e-05,
        99.99999999999866,
        0.0,
        0.0,
        0.0,
        0.0,
        1.0
      ],
      "name": "Cube_low"
    },
    {
      "mesh": 1,
      "name": "Cube_low_Main_0"
    },
    {
      "children": [
        8
      ],
      "matrix": [
        100.0,
        0.0,
        0.0,
        0.0,
        0.0,
        99.99999999999866,
        1.6292067073209114e-05,
        0.0,
        0.0,
        -1.6292067073209114e-05,
        99.99999999999866,
        0.0,
        0.0,
        0.0,
        0.0,
        1.0
      ],
      "name": "Cube.001_low"
    },
    {
      "mesh": 2,
      "name": "Cube.001_low_Main_0"
    },
    {
      "children": [
        10
      ],
      "matrix": [
        100.0,
        0.0,
        0.0,
        0.0,
        0.0,
        99.99999999999866,
        1.6292067073209114e-05,
        0.0,
        0.0,
        -1.6292067073209114e-05,
        99.99999999999866,
        0.0,
        0.0,
        0.0,
        0.0,
        1.0
      ],
      "name": "Cube.004_low"
    },
    {
      "mesh": 3,
      "name": "Cube.004_low_Main_0"
    },
    {
      "children": [
        12
      ],
      "matrix": [
        100.0,
        0.0,
        0.0,
        0.0,
        0.0,
        99.99999999999866,
        1.6292067073209114e-05,
        0.0,
        0.0,
        -1.6292067073209114e-05,
        99.99999999999866,
        0.0,
        0.0,
        0.0,
        0.0,
        1.0
      ],
      "name": "Cylinder.001_low"
    },
    {
      "mesh": 4,
      "name": "Cylinder.001_low_Main_0"
    },
    {
      "children": [
        14
      ],
      "matrix": [
        100.0,
        0.0,
        0.0,
        0.0,
        0.0,
        99.99999999999866,
        1.6292067073209114e-05,
        0.0,
        0.0,
        -1.6292067073209114e-05,
        99.99999999999866,
        0.0,
        0.0,
        0.0,
        0.0,
        1.0
      ],
      "name": "Cube.005_low"
    },
    {
      "mesh": 5,
      "name": "Cube.005_low_Main_0"
    },
    {
      "children": [
        16
      ],
      "matrix": [
        100.0,
        0.0,
        0.0,
        0.0,
        0.0,
        99.99999999999866,
        1.6292067073209114e-05,
        0.0,
        0.0,
        -1.6292067073209114e-05,
        99.99999999999866,
        0.0,
        0.0,
        0.0,
        0.0,
        1.0
      ],
      "name": "Cube.006_low"
    },
    {
      "mesh": 6,
      "name": "Cube.006_low_Main_0"
    },
    {
      "children": [
        18
      ],
      "matrix": [
        100.0,
        0.0,
        0.0,
        0.0,
        0.0,
        99.99999999999866,
        1.6292067073209114e-05,
        0.0,
        0.0,
        -1.6292067073209114e-05,
        99.99999999999866,
        0.0,
        0.0,
        0.0,
        0.0,
        1.0
      ],
      "name": "Cube.002_low"
    },
    {
      "mesh": 7,
      "name": "Cube.002_low_Main_0"
    }
  ],
  "samplers": [
    {
      "magFilter": 9729,
      "minFilter": 9987,
      "wrapS": 10497,
      "wrapT": 10497
    }
  ],
  "scene": 0,
  "scenes": [
    {
      "name": "Sketchfab_Scene",
      "nodes": [
        0
      ]
    }
  ],
  "textures": [
    {
      "sampler": 0,
      "source": 0
    },
    {
      "sampler": 0,
      "source": 1
    },
    {
      "sampler": 0,
      "source": 2
    }
  ]
}
